<?xml version="1.0" standalone="no"?>
<!DOCTYPE svg PUBLIC "-//W3C//DTD SVG 20010904//EN"
 "http://www.w3.org/TR/2001/REC-SVG-20010904/DTD/svg10.dtd">
<svg version="1.0" xmlns="http://www.w3.org/2000/svg"
 width="500.000000pt" height="500.000000pt" viewBox="0 0 500.000000 500.000000"
 preserveAspectRatio="xMidYMid meet">
<metadata>
Created by potrace 1.14, written by Peter Selinger 2001-2017
</metadata>
<g transform="translate(0.000000,500.000000) scale(0.100000,-0.100000)"
fill="#000000" stroke="none">
<path d="M1269 4203 c10 -21 50 -103 89 -183 38 -80 120 -248 182 -375 62
-126 145 -297 185 -380 40 -82 121 -249 180 -370 59 -121 127 -261 151 -312
l44 -92 -161 -328 c-89 -180 -220 -447 -291 -593 -343 -697 -395 -805 -392
-809 4 -5 1694 -4 1699 1 2 2 59 123 125 268 67 146 134 292 150 325 58 125
147 319 223 485 13 30 39 87 57 125 34 73 188 409 222 482 l19 43 -60 132
c-32 73 -73 162 -89 198 -17 36 -142 310 -278 610 -135 300 -273 605 -306 678
l-61 132 -854 0 -853 0 19 -37z"/>
</g>
</svg>
